<?xml version="1.0" encoding="UTF-8" standalone="no"?>
<svg
   xmlns:dc="http://purl.org/dc/elements/1.1/"
   xmlns:cc="http://creativecommons.org/ns#"
   xmlns:rdf="http://www.w3.org/1999/02/22-rdf-syntax-ns#"
   xmlns:svg="http://www.w3.org/2000/svg"
   xmlns="http://www.w3.org/2000/svg"
   viewBox="0 0 140 57"
   height="57"
   width="140"
   id="svg32"
   version="1.1">
  <metadata
     id="metadata38">
    <rdf:RDF>
      <cc:Work
         rdf:about="">
        <dc:format>image/svg+xml</dc:format>
        <dc:type
           rdf:resource="http://purl.org/dc/dcmitype/StillImage" />
        <dc:title></dc:title>
      </cc:Work>
    </rdf:RDF>
  </metadata>
  <defs
     id="defs36" />
  <path
     id="path42"
     d="m 59.400217,40.580223 c -1.107765,-0.801105 -2.220812,-1.653828 -2.473438,-1.894935 -0.276462,-0.263859 0.389359,-1.319053 1.672467,-2.650536 1.172484,-1.216684 2.432673,-2.896635 2.800421,-3.733218 0.58455,-1.329787 0.564192,-1.597062 -0.161872,-2.125448 -1.065181,-0.775162 -2.450907,-0.801555 -2.712235,-0.05167 -0.154245,0.44261 -2.077836,0.318558 -7.97255,-0.51414 -10.208004,-1.442006 -10.035139,-1.39463 -10.035139,-2.750167 0,-1.078285 -0.1839,-1.138244 -3.902353,-1.272284 -3.61143,-0.130188 -3.914347,-0.221457 -4.063257,-1.224348 -0.108214,-0.728893 0.09783,-1.083678 0.629412,-1.083678 0.600985,0 0.790316,-0.519224 0.790316,-2.16736 0,-1.192046 0.23464,-2.167356 0.521423,-2.167356 0.286783,0 0.958496,0.97531 1.492694,2.167356 0.889487,1.984862 1.121173,2.16736 2.751518,2.16736 1.246755,0 1.780247,-0.2165 1.780247,-0.722454 0,-0.615423 1.342746,-0.722452 9.063528,-0.722452 7.720787,0 9.063531,0.107029 9.063531,0.722452 0,1.881564 3.469062,0.169638 3.508692,-1.731483 0.03061,-1.468272 1.806417,-2.287409 6.670304,-3.076852 7.849079,-1.273959 8.975553,-0.853452 9.693314,3.618469 l 0.272845,1.699941 8.935658,-0.01429 8.935656,-0.01429 0.127306,5.057171 c 0.07003,2.781444 -0.08058,5.365135 -0.334672,5.741538 -0.695672,1.030532 -2.951317,-0.539323 -3.156959,-2.197137 -0.151069,-1.217819 -0.49373,-1.376984 -5.893553,-2.737497 -4.367957,-1.100528 -5.790799,-1.655308 -5.975197,-2.32979 -0.133117,-0.48691 -0.668783,-0.885291 -1.190366,-0.885291 -1.803851,0 -1.191247,2.986181 1.556047,7.585049 1.610626,2.696128 2.330808,4.358255 2.018026,4.65744 -0.752659,0.719936 -5.128624,2.202709 -5.62851,1.907197 -0.244996,-0.144838 -0.296372,-0.712596 -0.114165,-1.261697 0.216878,-0.653616 -0.244334,-2.136469 -1.33562,-4.294185 -1.8034,-3.565721 -1.964915,-3.645393 -6.07263,-2.995582 -1.715863,0.271437 -1.914602,0.493744 -3.163559,3.538708 -1.330619,3.244054 -4.376618,7.250614 -5.493031,7.225268 -0.324597,-0.0075 -1.496527,-0.668851 -2.604293,-1.469958 z m 7.64413,-11.767141 c 0.07453,-0.694574 0.03301,-0.734276 -0.15105,-0.144496 -0.139607,0.447287 -0.636408,0.922499 -1.104029,1.056025 -0.616596,0.176078 -0.575089,0.215769 0.15105,0.144496 0.586886,-0.0576 1.043802,-0.494657 1.104029,-1.056025 z m -1.891603,-1.811628 c 0.595517,-0.743393 0.577082,-0.814629 -0.142482,-0.550513 -0.454584,0.166865 -0.826517,0.641411 -0.826517,1.054568 0,0.413157 0.06412,0.660889 0.142483,0.550516 0.07836,-0.110376 0.450296,-0.584932 0.826516,-1.054571 z M 76.26074,20.992041 c -0.01937,-2.108326 -0.558565,-2.216103 -6.313916,-1.261878 -7.68612,1.274342 -7.59249,2.10474 0.237314,2.10474 5.461834,0 6.083525,-0.08624 6.076602,-0.842862 z"
     style="fill:#000000;stroke-width:0.49246064" />
</svg>
