<?xml version="1.0" encoding="UTF-8" standalone="no"?>
<svg
   xmlns:dc="http://purl.org/dc/elements/1.1/"
   xmlns:cc="http://creativecommons.org/ns#"
   xmlns:rdf="http://www.w3.org/1999/02/22-rdf-syntax-ns#"
   xmlns:svg="http://www.w3.org/2000/svg"
   xmlns="http://www.w3.org/2000/svg"
   viewBox="0 0 266.66666 266.66666"
   height="266.66666"
   width="266.66666"
   id="svg65"
   version="1.1">
  <metadata
     id="metadata71">
    <rdf:RDF>
      <cc:Work
         rdf:about="">
        <dc:format>image/svg+xml</dc:format>
        <dc:type
           rdf:resource="http://purl.org/dc/dcmitype/StillImage" />
        <dc:title></dc:title>
      </cc:Work>
    </rdf:RDF>
  </metadata>
  <defs
     id="defs69" />
  <path
     id="path75"
     d="m 81.468923,191.9096 v -37.33334 h -5.703325 c -3.162083,0 -7.172229,-1.00313 -8.999999,-2.25132 -8.632321,-5.89509 -43.71741,-35.18461 -44.45778,-37.11398 -0.46139,-1.20238 -0.83889,-10.83706 -0.83889,-21.410407 V 74.576267 h 15.33333 15.333332 v 13.209386 13.209377 l 14.114371,11.45729 14.114371,11.45728 h 13.140271 c 7.500686,0 13.501316,0.58416 13.981496,1.3611 0.46266,0.74862 3.94807,3.14298 7.74535,5.32083 9.82545,5.63516 21.31617,5.63516 31.14163,0 3.79728,-2.17785 7.28269,-4.57221 7.74536,-5.32083 0.48098,-0.77825 6.51804,-1.3611 14.09797,-1.3611 h 13.25676 l 13.99788,-11.42822 13.99788,-11.42821 V 87.814723 74.576267 h 15.33333 15.33333 v 19.420986 c 0,10.681547 -0.60145,20.544797 -1.33654,21.918357 -1.40807,2.63099 -39.91283,34.44841 -44.90913,37.10951 -1.60179,0.85313 -5.35179,1.55114 -8.33334,1.55114 h -5.42098 v 37.33334 37.33334 H 130.80226 81.468923 Z m 40.013697,-61.754 c -9.46783,-3.0151 -18.68036,-15.95874 -18.68036,-26.246 0,-14.486707 13.28479,-27.896737 27.7095,-27.970717 24.95492,-0.127986 37.60464,30.161077 19.77096,47.340517 -8.21168,7.91044 -18.12222,10.27664 -28.8001,6.8762 z M 52.135591,70.481029 c 0,-0.785714 0.874507,-2.303078 1.943347,-3.371918 1.958255,-1.958254 1.456846,-5.866177 -0.752665,-5.866177 -0.654875,0 -1.190682,-0.9 -1.190682,-2 0,-2.770058 2.167553,-2.499114 5.333334,0.666667 2.59993,2.599931 4.444444,2.666666 73.703685,2.666666 69.38702,0 71.09004,-0.06193 73.32028,-2.666666 1.2558,-1.466667 2.88914,-2.666667 3.62965,-2.666667 1.74107,0 1.75111,3.59249 0.0133,4.666667 -0.73333,0.453225 -1.33333,1.988634 -1.33333,3.412022 -2.8e-4,1.423388 0.59972,2.587978 1.33305,2.587978 0.73334,0 1.33334,0.9 1.33334,2 0,2.770058 -2.16755,2.499114 -5.33334,-0.666667 -2.5999,-2.599908 -4.44444,-2.666667 -73.67926,-2.666667 -69.568605,0 -71.046479,0.05423 -72.677975,2.666667 -1.756882,2.813217 -5.642764,3.665829 -5.642764,1.238095 z M 21.468929,49.26397 c 0,-8.726227 4.74005,-14.504599 12.783,-15.583149 10.408398,-1.39575 17.883662,5.638764 17.883662,16.829233 v 5.399547 H 36.802259 21.468929 Z m 188.888891,5.756742 c -1.56507,-1.565064 -0.95299,-8.573037 1.13265,-12.968188 4.63287,-9.763033 17.7549,-11.621423 24.97846,-3.537545 2.96072,3.313333 3.66666,5.382854 3.66666,10.748991 v 6.645631 h -14.44444 c -7.94445,0 -14.84445,-0.4 -15.33333,-0.888889 z"
     style="fill:#000000;stroke-width:1.33333325" />
</svg>
