<?xml version="1.0" encoding="UTF-8" standalone="no"?>
<svg
   xmlns:dc="http://purl.org/dc/elements/1.1/"
   xmlns:cc="http://creativecommons.org/ns#"
   xmlns:rdf="http://www.w3.org/1999/02/22-rdf-syntax-ns#"
   xmlns:svg="http://www.w3.org/2000/svg"
   xmlns="http://www.w3.org/2000/svg"
   viewBox="0 0 266.66666 266.66666"
   height="266.66666"
   width="266.66666"
   id="svg10"
   version="1.1">
  <metadata
     id="metadata16">
    <rdf:RDF>
      <cc:Work
         rdf:about="">
        <dc:format>image/svg+xml</dc:format>
        <dc:type
           rdf:resource="http://purl.org/dc/dcmitype/StillImage" />
        <dc:title></dc:title>
      </cc:Work>
    </rdf:RDF>
  </metadata>
  <defs
     id="defs14" />
  <path
     id="path20"
     d="M 97.751232,112.25872 V 95.263684 h -3.13745 c -3.5006,0 -5.60047,-1.06209 -6.97308,-3.52689 -0.49996,-0.89778 -2.74881,-7.77764 -4.99745,-15.2886 -3.37551,-11.27493 -3.98934,-14.02492 -3.52008,-15.77023 0.46345,-1.72375 2.87022,-3.99253 13.03904,-12.29148 l 12.470668,-10.17753 h 7.61894 c 4.19042,0 12.08954,0.17884 17.55361,0.39743 l 9.93466,0.39743 11.44983,9.27975 c 12.3548,10.0132 13.54639,11.21293 13.54639,13.63896 0,0.876 -1.92463,7.985 -4.27695,15.79778 -3.76073,12.49057 -4.51499,14.40653 -6.24916,15.87423 -1.59964,1.35383 -2.59059,1.66915 -5.24545,1.66915 h -3.27322 v 16.995036 16.99502 H 121.72138 97.751232 Z M 128.28855,85.017664 c 1.44477,-0.61318 3.18983,-1.69972 3.8779,-2.41453 1.07355,-1.11527 1.96735,-1.29965 6.3,-1.29965 h 5.04897 l 2.47403,-8.29259 c 2.46201,-8.25228 2.4676,-8.29727 1.15054,-9.25622 -0.72793,-0.53 -6.69328,-5.33378 -13.25634,-10.67507 -6.56306,-5.3413 -12.13221,-9.61636 -12.37591,-9.50015 -0.24369,0.11621 -5.89047,4.62293 -12.54839,10.01492 -6.65792,5.392 -12.520168,10.09046 -13.027208,10.44102 -0.77572,0.53632 -0.53179,1.95583 1.53847,8.95274 l 2.46036,8.31535 h 4.889958 c 4.33266,0 5.12529,0.18333 6.9549,1.60863 1.13573,0.88476 2.95152,1.9666 4.0351,2.40411 2.9087,1.17441 9.37138,1.01978 12.47762,-0.29856 z m -11.08835,-0.93131 c -3.25822,-1.11765 -7.39362,-4.8394 -8.34844,-7.51336 -1.18546,-3.31986 -0.46439,-8.736 1.53478,-11.52808 2.11235,-2.95017 7.46179,-5.5948 11.2996,-5.58625 4.08731,0.009 9.14022,2.47195 11.32133,5.51815 1.62251,2.26603 1.84824,3.14904 1.84824,7.22976 0,4.08811 -0.21879,4.94026 -1.81499,7.06909 -3.40984,4.54764 -10.40991,6.67353 -15.84052,4.81069 z m 5.83462,-47.12227 c -16.34594,-0.54728 -15.5702,-0.48652 -15.10448,-1.18299 0.55359,-0.82788 26.27648,-0.80823 27.95362,0.0213 1.41595,0.70038 1.7245,1.86045 0.44936,1.68947 -0.45149,-0.0605 -6.43582,-0.29807 -13.2985,-0.52784 z m -14.58106,-4.47422 c -1.01027,-0.80367 -1.6284,-1.65436 -1.37363,-1.89041 0.43573,-0.40371 19.13532,0.54959 25.39212,1.29448 5.54759,0.66045 1.60808,1.30781 -10.22744,1.68061 -11.95272,0.37649 -11.95442,0.37636 -13.79105,-1.08468 z m 8.99897,-3.1104 c -5.59851,-0.42244 -10.54851,-0.7937 -11,-0.82501 -2.2525,-0.15624 0.17447,-6.2365 3.03505,-7.60369 3.5227,-1.68366 5.89694,-1.24311 10.49224,1.94684 l 1.98824,1.38019 2.3318,-1.89225 c 2.88125,-2.33812 6.5285,-2.92904 9.45259,-1.53149 3.18472,1.52212 4.90186,5.51239 3.65967,8.50426 -0.48283,1.16291 -4.76807,1.16745 -19.95959,0.0212 z"
     style="fill:#000000;stroke-width:0.63135093" />
</svg>
