<?xml version="1.0" encoding="UTF-8" standalone="no"?>
<svg
   xmlns:dc="http://purl.org/dc/elements/1.1/"
   xmlns:cc="http://creativecommons.org/ns#"
   xmlns:rdf="http://www.w3.org/1999/02/22-rdf-syntax-ns#"
   xmlns:svg="http://www.w3.org/2000/svg"
   xmlns="http://www.w3.org/2000/svg"
   viewBox="0 0 266.66666 266.66666"
   height="266.66666"
   width="266.66666"
   id="svg10"
   version="1.1">
  <metadata
     id="metadata16">
    <rdf:RDF>
      <cc:Work
         rdf:about="">
        <dc:format>image/svg+xml</dc:format>
        <dc:type
           rdf:resource="http://purl.org/dc/dcmitype/StillImage" />
        <dc:title></dc:title>
      </cc:Work>
    </rdf:RDF>
  </metadata>
  <defs
     id="defs14" />
  <path
     id="path20"
     d="m 66.63995,219.12739 v -39.97713 h -8.416253 c -9.390407,0 -15.023338,-2.49833 -18.705383,-8.29624 -1.34115,-2.11183 -7.373721,-18.29521 -13.405728,-35.96311 -9.054852,-26.52182 -10.70146,-32.99057 -9.442663,-37.096039 1.243211,-4.054747 7.699404,-9.391559 34.977404,-28.913035 L 85.100066,44.94141 h 20.437914 c 11.24086,0 32.43035,0.420682 47.0878,0.934867 l 26.64986,0.934868 30.71433,21.828594 c 33.14192,23.553877 36.33837,26.375981 36.33837,32.082691 0,2.0606 -5.16284,18.78298 -11.47297,37.16084 -10.08821,29.38135 -12.11153,33.88823 -16.76346,37.34068 -4.29106,3.18459 -6.94929,3.92631 -14.07099,3.92631 h -8.78046 v 39.97713 39.9771 H 130.9402 66.63995 Z m 81.91678,-64.07866 c 3.87561,-1.44238 8.55676,-3.99822 10.40252,-5.67966 2.87981,-2.62343 5.27744,-3.05714 16.89983,-3.05714 h 13.54393 l 6.63662,-19.50652 c 6.60438,-19.41169 6.61937,-19.51752 3.08634,-21.77324 -1.95268,-1.24671 -17.95481,-12.546565 -35.56031,-25.110789 -17.6055,-12.564247 -32.54482,-22.620396 -33.19855,-22.347038 -0.6537,0.273359 -15.80127,10.874438 -33.661228,23.557922 -17.859963,12.683508 -33.585524,23.735615 -34.945666,24.560235 -2.080879,1.26157 -1.426534,4.60066 4.126967,21.05937 l 6.59995,19.56006 h 13.11738 c 11.62242,0 13.748661,0.43124 18.656617,3.78395 3.04661,2.0812 7.91749,4.626 10.82421,5.65514 7.80263,2.76255 25.13885,2.39882 33.47139,-0.70229 z m -29.74466,-2.19071 c -8.74022,-2.62903 -19.833482,-11.38363 -22.3948,-17.67354 -3.180013,-7.80925 -1.245733,-20.54954 4.11707,-27.11731 5.6664,-6.93963 20.01635,-13.160549 30.31133,-13.140437 10.96426,0.02117 24.51877,5.814727 30.36962,12.980247 4.35241,5.33035 4.95793,7.40744 4.95793,17.00644 0,9.61639 -0.5869,11.62089 -4.86873,16.6285 -9.14695,10.69733 -27.92473,15.69803 -42.49242,11.3161 z M 134.46352,42.013124 C 90.615314,40.725766 92.696248,40.868691 93.945548,39.230397 c 1.485013,-1.947408 70.487022,-1.901186 74.985972,0.0501 3.7983,1.647492 4.62599,4.376305 1.20541,3.974111 -1.21113,-0.142313 -17.26417,-0.701145 -35.67341,-1.241629 z M 95.349629,31.488494 c -2.710063,-1.890459 -4.368205,-3.891523 -3.684781,-4.446779 1.168852,-0.94964 51.330762,1.292791 68.114712,3.044983 14.88148,1.553565 4.3137,3.076339 -27.43525,3.95327 -32.06334,0.88561 -32.0679,0.885305 -36.994681,-2.551474 z M 119.48949,24.171953 C 104.47141,23.178255 91.192967,22.304946 89.981839,22.231297 83.939476,21.863776 90.449857,7.5612864 98.123402,4.3452691 107.57309,0.38482486 113.94202,1.421123 126.26898,8.924787 l 5.33348,3.246597 6.25509,-4.4511069 c 7.72899,-5.499919 17.51279,-6.88992994 25.3567,-3.6024972 8.54305,3.5804564 13.14931,12.9666991 9.81711,20.0044221 -1.29519,2.735494 -12.79041,2.746173 -53.54187,0.04987 z"
     style="fill:#000000;stroke-width:1.58593929" />
</svg>
