<?xml version="1.0" encoding="UTF-8" standalone="no"?>
<svg
   xmlns:dc="http://purl.org/dc/elements/1.1/"
   xmlns:cc="http://creativecommons.org/ns#"
   xmlns:rdf="http://www.w3.org/1999/02/22-rdf-syntax-ns#"
   xmlns:svg="http://www.w3.org/2000/svg"
   xmlns="http://www.w3.org/2000/svg"
   viewBox="0 0 256 256"
   height="256"
   width="256"
   id="svg3817"
   version="1.1">
  <metadata
     id="metadata3823">
    <rdf:RDF>
      <cc:Work
         rdf:about="">
        <dc:format>image/svg+xml</dc:format>
        <dc:type
           rdf:resource="http://purl.org/dc/dcmitype/StillImage" />
        <dc:title></dc:title>
      </cc:Work>
    </rdf:RDF>
  </metadata>
  <defs
     id="defs3821" />
  <path
     id="path3827"
     d="m 96.485523,257.08003 c -33.2272,-1.72936 -61.53553,-6.10531 -81.47341,-12.59431 -8.6059099,-2.80088 -11.2368899,-4.08745 -12.0620099,-5.89839 -1.63692,-3.59265 0.772,-19.28312 4.8235,-31.41784 7.8694699,-23.56998 17.5726399,-34.78397 40.0345899,-46.26812 12.34142,-6.30981 37.49973,-17.95136 37.8594,-17.51874 0.13117,0.15777 2.41443,2.98054 5.0739,6.27283 11.215577,13.88427 22.574477,19.59079 39.124107,19.65532 16.90775,0.0659 29.38182,-6.15084 40.10853,-19.98909 2.40972,-3.10871 4.50606,-5.78129 4.65853,-5.93906 0.40979,-0.42404 25.38147,11.11934 37.89813,17.51874 22.46663,11.48655 32.1806,22.71523 40.02672,46.26812 3.59986,10.80624 6.25914,26.28536 5.22419,30.40892 -0.39884,1.58912 -2.10492,2.9807 -5.34892,4.36291 -28.49423,12.14085 -93.08107,18.41067 -155.947257,15.13871 z m 20.592907,-96.80692 c -16.69625,-5.34188 -27.997827,-20.65696 -36.247687,-49.12026 -1.35236,-4.66585 -2.37042,-8.57983 -2.26235,-8.69773 0.10808,-0.1179 11.74341,-2.29944 25.856297,-4.847873 l 25.65979,-4.633501 25.74964,4.638341 c 14.1623,2.551093 25.83589,4.732633 25.9413,4.847873 0.10541,0.11524 -0.91482,4.02704 -2.26718,8.69289 -8.39598,28.96741 -20.02074,44.38435 -37.27025,49.42838 -7.08566,2.07196 -18.14379,1.93653 -25.15956,-0.30812 z M 100.80435,87.096912 c -2.723877,-2.1426 -3.680167,-6.926771 -1.384857,-6.928197 1.329957,-8.26e-4 17.405097,2.932756 19.483137,3.555514 0.67823,0.203255 0.99097,1.000637 0.69499,1.771959 -1.54923,4.037225 -14.3136,5.124435 -18.79327,1.600724 z m 46.89774,-0.08044 c -2.06341,-1.623073 -2.40428,-2.332782 -1.38486,-2.883343 2.07066,-1.118313 20.85623,-4.293003 21.51353,-3.635705 1.33267,1.332673 -0.90459,5.746531 -3.6261,7.153878 -4.48556,2.319577 -13.17143,1.985443 -16.50257,-0.63483 z M 74.845553,59.419492 c 0.59077,-16.207032 1.65292,-21.64 5.8841,-30.097626 10.27819,-20.5448881 34.941707,-30.6476474 62.726877,-25.6944104 16.17936,2.8842803 29.46525,12.3267864 36.1528,25.6944104 4.25901,8.513256 5.32312,13.995312 5.8422,30.097626 l 0.41102,12.75 H 130.12167 74.380793 Z"
     style="fill:#000000" />
</svg>
